<svg class="bilue-logo-large" width="110" height="110" viewBox="0 0 110 110" xmlns="http://www.w3.org/2000/svg" xmlns:xlink="http://www.w3.org/1999/xlink"><title>Bilue</title><defs><path id="a" d="M0 0h110v110H0V0z"></path></defs><g fill="none" fill-rule="evenodd"><path d="M0 110h110V0H0v110z" fill="#29A3D2"></path><g><path d="M31.084 85.33c0-5.587-2.202-9.693-7.323-9.693-4.57 0-7.66 3.345-7.66 9.652 0 6.35 3.09 9.566 7.66 9.566 5.08 0 7.324-3.937 7.324-9.525zm-14.9-18.286v11.684c1.734-3.556 5.08-4.995 7.915-4.995 5.714 0 9.354 3.852 9.354 11.556 0 7.66-3.64 11.47-9.355 11.47-2.922 0-6.308-1.27-8-5.163v4.656h-2.16v-29.21h2.243z" fill="#FFF"></path><mask id="b" fill="#fff"><use xlink:href="#a"></use></mask><path d="M40.694 96.253H38.45V74.24h2.244v22.013zm.127-26.077h-2.497v-3.132h2.498v3.132zM47.17 67.044h2.244v29.21H47.17v-29.21zM55.595 88.718V74.24h2.244v14.436c0 3.344 2.284 6.138 6.56 6.138s6.56-2.794 6.56-6.138V74.24h2.245v14.478c0 5.122-3.556 8.043-8.805 8.043-5.207 0-8.805-2.92-8.805-8.042M80.275 83.554H95.05v-.974c0-3.852-2.33-6.9-7.113-6.9-4.445 0-7.365 2.963-7.662 7.874zM97.42 89.48c-.508 4.7-4.7 7.28-9.568 7.28-5.714 0-9.99-3.428-9.99-11.47 0-7.41 4.15-11.558 10.033-11.558 6.18 0 9.44 3.726 9.44 9.356V85.5H80.233c-.085 6.096 2.71 9.314 7.662 9.314 3.598 0 6.9-1.566 7.492-5.673l2.033.34z" fill="#FFF" mask="url(#b)"></path></g></g></svg>
